# xmcd
#
# Track frame offsets:
# 150
# 2920
# 24243
# 49395
# 56534
# 97288
# 116791
# 140438
#
# Disc length: 3144 seconds
#
#
# Revision: 3
# Processed by: cddbd v1.5.1PL2 Copyright (c) Steve Scherf et al.
# Submitted via: FreeRIP 2.53 
#
DISCID=6e0c4608
DTITLE=Mägo de Oz - Gaia II: La Voz Dormida [CD2]
DYEAR=2005
DGENRE=Metal
TTITLE0=Incubos y Súcubos
TTITLE1=Diabulus in Musica
TTITLE2=Mañana Empieza Hoy
TTITLE3=El Príncipe de la Dulce Pena
TTITLE4=Aquelarre
TTITLE5=Hoy Toca ser Feliz
TTITLE6=Creo (La Voz Dormida -  Parte II)
TTITLE7=La Cantata del Diablo (Missit me Dominus)
EXTD=
EXTT0=
EXTT1=
EXTT2=
EXTT3=
EXTT4=
EXTT5=
EXTT6=
EXTT7=
PLAYORDER=
